<svg id="Cottage" xmlns="http://www.w3.org/2000/svg" viewBox="0 0 37 37"><defs><style>.cls-1{fill:#b35d27;}.cls-2{fill:#2a8b42;}.cls-3{fill:#2db34a;}.cls-4{fill:#72c053;}.cls-5{fill:#3fa047;}.cls-6{fill:#86c440;}.cls-7{fill:#feed74;}.cls-8{fill:#21140a;opacity:0.2;}</style></defs><title>south-coast1</title><polygon class="cls-1" points="22.52 16.25 15.76 16.25 17.57 6.58 20.7 6.58 22.52 16.25"/><path class="cls-2" d="M18.59.16c-3.85,0-7,2.86-7,6.39H25.56C25.56,3,22.44.16,18.59.16Z"/><path class="cls-3" d="M9.87.76C4.74.76.58,4.16.58,8.35H19.15C19.15,4.16,15,.76,9.87.76Z"/><path class="cls-4" d="M26.37.76c-5.13,0-9.29,3.4-9.29,7.59H35.66C35.66,4.16,31.5.76,26.37.76Z"/><path class="cls-5" d="M30.32,7.75c-3.94-3.29-9.31-3.35-12-.13L32.57,19.53C35.26,16.32,34.25,11,30.32,7.75Z"/><path class="cls-6" d="M8,6.73c-4.28,2.83-5.88,8-3.57,11.46L19.9,7.94C17.59,4.44,12.25,3.9,8,6.73Z"/><polygon class="cls-1" points="22.52 21.4 15.76 21.4 17.57 11.73 20.7 11.73 22.52 21.4"/><polygon class="cls-1" points="22.52 26.57 15.76 26.57 17.57 16.9 20.7 16.9 22.52 26.57"/><polygon class="cls-1" points="22.52 31.93 15.76 31.93 17.57 22.26 20.7 22.26 22.52 31.93"/><path class="cls-7" d="M19,31.76c-8.32,0-15.07,2.28-15.07,5.08H34.08C34.08,34,27.33,31.76,19,31.76Z"/><path class="cls-8" d="M22.52,31.93c-7-.69-18,.72-18.58,4.91H8.63C8.63,34,24,32.08,22.52,31.93Z"/></svg>