<svg id="Cottage" xmlns="http://www.w3.org/2000/svg" viewBox="0 0 37 37"><defs><style>.cls-1{fill:#ffb74d;}.cls-2{fill:#ffdeaa;}.cls-3{fill:#f96485;}.cls-4{fill:#6dd1c0;}.cls-5{opacity:0.1;}.cls-6{fill:#f797b0;}.cls-7{fill:#d8d8d8;}</style></defs><title>birthday</title><path class="cls-1" d="M10,1.52a2.4,2.4,0,0,1,1.49,2v0c0,2-3.48,2-3.51,0v0a2.38,2.38,0,0,1,1.49-2Z"/><rect class="cls-2" x="0.86" y="16.08" width="34.88" height="14.32"/><path class="cls-3" d="M33.57,13.05H3A2,2,0,0,0,.86,14.69v9.69c0,1,1.12,1.88,2.49,1.88s2.49-.84,2.49-1.88v-6c0-1,1.12-1.88,2.49-1.88h0c1.38,0,2.5.84,2.5,1.88v4.58c0,1,1.11,1.88,2.49,1.88s2.49-.84,2.49-1.88V20.08a2.26,2.26,0,0,1,2.49-1.89,2.25,2.25,0,0,1,2.49,1.89v1.55c0,1,1.12,1.88,2.49,1.88s2.5-.84,2.5-1.88V19c0-1,1.11-1.88,2.49-1.88s2.49.84,2.49,1.88v4c0,1,1.12,1.88,2.49,1.88s2.49-.84,2.49-1.88V14.69A2,2,0,0,0,33.57,13.05Z"/><path class="cls-4" d="M26.17,5.85h1.32A2.49,2.49,0,0,1,30,8.34v4.71a0,0,0,0,1,0,0H24.8a0,0,0,0,1,0,0V7.23A1.37,1.37,0,0,1,26.17,5.85Z"/><path class="cls-4" d="M8.59,5.85H9.9a2.35,2.35,0,0,1,2.35,2.35v4.85a0,0,0,0,1,0,0H7.35a0,0,0,0,1,0,0v-6A1.24,1.24,0,0,1,8.59,5.85Z"/><path class="cls-4" d="M17,4.74h2.56a1.31,1.31,0,0,1,1.31,1.31v7a0,0,0,0,1,0,0H15.72a0,0,0,0,1,0,0v-7A1.31,1.31,0,0,1,17,4.74Z"/><path class="cls-5" d="M27,5.85h-.89A1.27,1.27,0,0,0,24.8,7.13v5.92h.88V7.13A1.28,1.28,0,0,1,27,5.85Z"/><path class="cls-5" d="M18,4.74H17A1.27,1.27,0,0,0,15.72,6v7h1V6A1.28,1.28,0,0,1,18,4.74Z"/><path class="cls-5" d="M9.63,5.85h-1A1.21,1.21,0,0,0,7.35,7v6.09h1V7A1.2,1.2,0,0,1,9.63,5.85Z"/><rect class="cls-6" x="0.86" y="30.4" width="34.88" height="6.41"/><path class="cls-5" d="M4.54,13.05H2.93A2,2,0,0,0,.86,14.76v22H2.69v-22A1.83,1.83,0,0,1,4.54,13.05Z"/><path class="cls-1" d="M18.57.2a2.4,2.4,0,0,1,1.49,2v0c0,2-3.48,2-3.52,0v0A2.39,2.39,0,0,1,18,.2Z"/><path class="cls-1" d="M27.28,1.79a2.4,2.4,0,0,1,1.49,2v0c0,2-3.48,2-3.51,0v0a2.39,2.39,0,0,1,1.5-2Z"/><path class="cls-7" d="M9.73,3.69h0a.36.36,0,0,1,.36.36v1.8a0,0,0,0,1,0,0H9.37a0,0,0,0,1,0,0V4.05a.36.36,0,0,1,.36-.36Z"/><path class="cls-7" d="M18.29,2.58h0a.36.36,0,0,1,.36.36v1.8a0,0,0,0,1,0,0h-.75a0,0,0,0,1,0,0V2.94A.36.36,0,0,1,18.29,2.58Z"/><path class="cls-7" d="M27,3.69h0a.36.36,0,0,1,.36.36v1.8a0,0,0,0,1,0,0h-.75a0,0,0,0,1,0,0V4.05A.36.36,0,0,1,27,3.69Z"/></svg>