<svg id="Cottage" xmlns="http://www.w3.org/2000/svg" viewBox="0 0 37 37"><defs><style>.cls-1{fill:#ed1459;}.cls-2{fill:#fff;}.cls-3{opacity:0.1;}</style></defs><title>discount</title><path class="cls-1" d="M34.53,3l-.5-.5A4.76,4.76,0,0,0,29.2,1.37l-9,2.91a4.75,4.75,0,0,0-1.91,1.16L2.47,21.23a4.76,4.76,0,0,0,0,6.73L9,34.47a4.77,4.77,0,0,0,6.74,0L31.52,18.66a4.83,4.83,0,0,0,1.14-1.84l3-8.89A4.77,4.77,0,0,0,34.53,3Zm-5.55,8a3.22,3.22,0,1,1,3.21-3.21A3.22,3.22,0,0,1,29,11.05Z"/><rect class="cls-2" x="14.62" y="13.19" width="1.48" height="15.02" rx="0.74" transform="translate(32.78 1.7) rotate(79.08)"/><path class="cls-2" d="M15.67,27.93a2.65,2.65,0,1,1,1.87-.77A2.66,2.66,0,0,1,15.67,27.93Zm0-3.79a1.1,1.1,0,0,0-.8.34,1.13,1.13,0,0,0,0,1.61,1.14,1.14,0,1,0,1.61-1.61A1.12,1.12,0,0,0,15.67,24.14Z"/><path class="cls-2" d="M15.92,18.47a2.65,2.65,0,1,1,1.88-.78A2.64,2.64,0,0,1,15.92,18.47Zm0-3.79a1.1,1.1,0,0,0-.8.34,1.13,1.13,0,0,0,0,1.61A1.14,1.14,0,1,0,16.73,15,1.1,1.1,0,0,0,15.92,14.68Z"/><path class="cls-3" d="M25.76,7.84a3.21,3.21,0,0,1,5.55-2.21l2.91-2.91L34,2.53A4.76,4.76,0,0,0,29.2,1.37l-9,2.91a4.75,4.75,0,0,0-1.91,1.16L2.47,21.23a4.76,4.76,0,0,0,0,6.73l3.25,3.26,21-21A3.23,3.23,0,0,1,25.76,7.84Z"/></svg>