<svg id="Cottage" xmlns="http://www.w3.org/2000/svg" viewBox="0 0 37 37"><defs><style>.cls-1{fill:#ffb74d;}.cls-2{fill:#ffa726;}.cls-3{fill:#37474f;}.cls-4{fill:#eceff1;}</style></defs><title>pool</title><path class="cls-1" d="M19.77,7.65C26,11.05,32.2,16.4,32.2,24c0,.13,0,.26,0,.4-.32,16.49-29,16.49-29.28,0,0-.14,0-.27,0-.4,0-7.63,6.16-13,12.43-16.38Z"/><path class="cls-1" d="M18.5,5.25a20.12,20.12,0,0,0,6.8-5H9.8a20.18,20.18,0,0,0,6.79,5.05Z"/><path class="cls-2" d="M14.48.2a15.64,15.64,0,0,0,2.69,5.05h-.58A20.18,20.18,0,0,1,9.8.2Z"/><path class="cls-3" d="M21.19,5.12H13.91a1.26,1.26,0,0,0-1.26,1.27h0a1.25,1.25,0,0,0,1.26,1.26h7.28a1.26,1.26,0,0,0,1.26-1.26h0A1.27,1.27,0,0,0,21.19,5.12Z"/><path class="cls-4" d="M19.87,26.52h-6a.73.73,0,0,0,0,1.46h2.89v1.78a.74.74,0,1,0,1.47,0V28h1.67A2,2,0,0,0,21.82,26v-2a2,2,0,0,0-1.95-1.95H15.06a.49.49,0,0,1-.49-.48v-2a.48.48,0,0,1,.49-.48h6a.74.74,0,0,0,0-1.47H18.2V15.94a.74.74,0,0,0-1.47,0v1.78H15.06a2,2,0,0,0-2,2v2a1.94,1.94,0,0,0,2,1.94h4.81a.49.49,0,0,1,.49.49v2A.49.49,0,0,1,19.87,26.52Z"/><path class="cls-2" d="M17.55,36.8h-.3c-7.4-.1-14.07-4.16-14.34-12.17v-.19c0-.14,0-.27,0-.4,0-7.63,6.17-13,12.43-16.38h.87c-3.79,3.4-6.37,10-6.37,17.65v.4C9.93,34,13.74,36.8,17.55,36.8Z"/></svg>