<svg id="Cottage" xmlns="http://www.w3.org/2000/svg" xmlns:xlink="http://www.w3.org/1999/xlink" viewBox="0 0 37 37"><defs><style>.cls-1{fill:#ff8b15;}.cls-2{fill:url(#linear-gradient);}.cls-3{fill:url(#linear-gradient-2);}</style><linearGradient id="linear-gradient" x1="13.77" y1="34.69" x2="17.77" y2="17.24" gradientUnits="userSpaceOnUse"><stop offset="0" stop-color="#006ae9"/><stop offset="1" stop-color="#15a0ff"/></linearGradient><linearGradient id="linear-gradient-2" x1="17.15" y1="19.93" x2="18.95" y2="12.09" xlink:href="#linear-gradient"/></defs><title>pool</title><path class="cls-1" d="M31.9.68a3.57,3.57,0,0,0-2.48,1A3.51,3.51,0,0,0,26.87.6a3.56,3.56,0,0,0-3.56,3.56V17.31h.92V12.36h4.11v5h.91V4.24a2.65,2.65,0,0,1,5.3,0h.91A3.56,3.56,0,0,0,31.9.68Zm-5,.83a2.62,2.62,0,0,1,2,.9,3.57,3.57,0,0,0-.51,1.83v2.2H24.23V4.16A2.65,2.65,0,0,1,26.87,1.51Zm-2.64,9.94V7.35h4.11v4.1Z"/><path class="cls-2" d="M35,12.87c1.14-.53,2.2,1.09,1.85,2.82-2.39,12-9.6,20.71-18.12,20.71C9.53,36.4,1.89,26.46.13,13.08,0,12,.77,11.31,1.33,12a2.94,2.94,0,0,0,2.19,1.16,3.58,3.58,0,0,0,3-2.28.83.83,0,0,1,1.59,0,3.58,3.58,0,0,0,3,2.28,3.58,3.58,0,0,0,3-2.28.83.83,0,0,1,1.59,0,3.58,3.58,0,0,0,3,2.28,3.58,3.58,0,0,0,3-2.28.83.83,0,0,1,1.59,0,3.56,3.56,0,0,0,3,2.28,3.58,3.58,0,0,0,3-2.28.83.83,0,0,1,1.59,0,3.56,3.56,0,0,0,3,2.28A2.56,2.56,0,0,0,35,12.87Z"/><path class="cls-3" d="M.58,15.83a.55.55,0,0,1,.75.16,2.9,2.9,0,0,0,2.19,1.16,3.56,3.56,0,0,0,3-2.28.83.83,0,0,1,1.59,0,3.58,3.58,0,0,0,3,2.28,3.56,3.56,0,0,0,3-2.28.83.83,0,0,1,1.59,0,3.58,3.58,0,0,0,3,2.28,3.56,3.56,0,0,0,3-2.28.83.83,0,0,1,1.59,0,3.56,3.56,0,0,0,3,2.28,3.56,3.56,0,0,0,3-2.28.83.83,0,0,1,1.59,0,3.56,3.56,0,0,0,3,2.28A2.56,2.56,0,0,0,35,16.9a1.14,1.14,0,0,1,1.46.54c.14-.58.28-1.16.39-1.75.35-1.73-.71-3.35-1.85-2.82a2.56,2.56,0,0,1-1.09.25,3.56,3.56,0,0,1-3-2.28.83.83,0,0,0-1.59,0,3.58,3.58,0,0,1-3,2.28,3.56,3.56,0,0,1-3-2.28.83.83,0,0,0-1.59,0,3.58,3.58,0,0,1-3,2.28,3.58,3.58,0,0,1-3-2.28.83.83,0,0,0-1.59,0,3.58,3.58,0,0,1-3,2.28,3.58,3.58,0,0,1-3-2.28.83.83,0,0,0-1.59,0,3.58,3.58,0,0,1-3,2.28A2.94,2.94,0,0,1,1.33,12C.77,11.31,0,12,.13,13.08S.4,14.93.58,15.83Z"/></svg>