<svg id="Cottage" xmlns="http://www.w3.org/2000/svg" viewBox="0 0 37 37"><defs><style>.cls-1{fill:#009ee9;}.cls-2{fill:#ffe9b4;}.cls-3{fill:#ff5c35;}.cls-4{fill:#ffb95f;}.cls-5{opacity:0.4;}.cls-6{opacity:0.5;}.cls-7{fill:#fff;}</style></defs><title>rural</title><path class="cls-1" d="M18.72,9.93a2,2,0,1,1-2,2,2,2,0,0,1,2-2m0-.4a2.36,2.36,0,1,0,2.36,2.36,2.36,2.36,0,0,0-2.36-2.36Z"/><path class="cls-1" d="M18.72,15.8a3.59,3.59,0,0,1,3.58,3.58v9.34a.53.53,0,0,1-.54.53H15.68a.53.53,0,0,1-.53-.53V19.38a3.58,3.58,0,0,1,3.57-3.58m0-.4h0a4,4,0,0,0-4,4v9.34a.93.93,0,0,0,.93.93h6.08a.93.93,0,0,0,.94-.93V19.38a4,4,0,0,0-4-4Z"/><path class="cls-1" d="M28.53,15.69a3.59,3.59,0,0,1,3.59,3.59V21.2a.63.63,0,0,1-.63.63H25.58A.63.63,0,0,1,25,21.2V19.28a3.59,3.59,0,0,1,3.58-3.59m0-.39h0a4,4,0,0,0-4,4V21.2a1,1,0,0,0,1,1h5.91a1,1,0,0,0,1-1V19.28a4,4,0,0,0-4-4Z"/><path class="cls-1" d="M7.6,15.69a3.61,3.61,0,0,1,3.6,3.61v1.9a.64.64,0,0,1-.64.63H4.63A.63.63,0,0,1,4,21.2V19.3a3.61,3.61,0,0,1,3.6-3.61m0-.39h0a4,4,0,0,0-4,4v1.9a1,1,0,0,0,1,1h5.93a1,1,0,0,0,1-1V19.3a4,4,0,0,0-4-4Z"/><path class="cls-2" d="M18.48,4.22h0A18.16,18.16,0,0,0,.31,22.38v9.38a2.1,2.1,0,0,0,2.11,2.11H34.53a2.1,2.1,0,0,0,2.11-2.11V22.38A18.16,18.16,0,0,0,18.48,4.22Zm.24,5.31a2.36,2.36,0,1,1-2.36,2.36A2.36,2.36,0,0,1,18.72,9.53ZM11.6,21.2a1,1,0,0,1-1,1H4.63a1,1,0,0,1-1-1V19.3a4,4,0,0,1,4-4h0a4,4,0,0,1,4,4Zm11.1,7.51a.94.94,0,0,1-.94.94H15.68a.94.94,0,0,1-.93-.94V19.37a4,4,0,0,1,4-4h0a4,4,0,0,1,4,4Zm9.83-7.51a1,1,0,0,1-1,1H25.57a1,1,0,0,1-1-1V19.3a4,4,0,0,1,4-4h0a4,4,0,0,1,4,4Z"/><rect class="cls-3" x="25.31" y="26.48" width="6.36" height="1.57" rx="0.68"/><path class="cls-4" d="M.31,29.62H36.64a0,0,0,0,1,0,0v2.31a1.95,1.95,0,0,1-1.95,1.95H2.25A1.95,1.95,0,0,1,.31,31.93V29.62a0,0,0,0,1,0,0Z"/><rect class="cls-5" x="14.37" y="29.65" width="8.79" height="2.11" rx="0.4"/><rect class="cls-6" x="14" y="31.76" width="9.44" height="2.11" rx="0.4"/><rect class="cls-3" x="4.74" y="26.37" width="6.36" height="1.57" rx="0.68"/><rect class="cls-3" x="4.74" y="28.05" width="6.36" height="1.57" rx="0.68"/><rect class="cls-7" x="5.59" y="26.37" width="4.66" height="1.57"/><rect class="cls-7" x="5.59" y="28.05" width="4.66" height="1.57"/><rect class="cls-3" x="25.31" y="28.05" width="6.36" height="1.57" rx="0.68"/><rect class="cls-7" x="26.16" y="26.37" width="4.66" height="1.57"/><rect class="cls-7" x="26.16" y="28.05" width="4.66" height="1.57"/><rect class="cls-1" x="18.52" y="15.65" width="0.4" height="13.76"/><rect class="cls-1" x="28.33" y="15.35" width="0.4" height="6.68"/><rect class="cls-1" x="24.83" y="18.49" width="7.4" height="0.4"/><rect class="cls-1" x="7.4" y="15.35" width="0.4" height="6.68"/><rect class="cls-1" x="3.9" y="18.49" width="7.4" height="0.4"/></svg>