<svg id="Cottage" xmlns="http://www.w3.org/2000/svg" viewBox="0 0 37 37"><defs><style>.cls-1{fill:#5fe6ff;}.cls-2{fill:#f1c874;}.cls-3,.cls-5{opacity:0.1;}.cls-4{fill:#ffda15;}</style></defs><title>desert</title><path class="cls-1" d="M18.5,4.51C8.51,4.51.41,14.07.41,25.87a25.28,25.28,0,0,0,.45,4.65c.28-.1.58-.19.88-.27a9.85,9.85,0,0,1,8-5.2,11.61,11.61,0,0,1,3-.39,10.65,10.65,0,0,1,6.07,1.75A10.94,10.94,0,0,1,24,25.19a10.77,10.77,0,0,1,5.85,1.6,9.59,9.59,0,0,1,3.38,2.37,10,10,0,0,1,3,1.21,24.7,24.7,0,0,0,.43-4.5C36.59,14.07,28.49,4.51,18.5,4.51Z"/><path class="cls-2" d="M7.24,31.72l6.54-7.5a2.18,2.18,0,0,1,2.88-.47l12.59,8Z"/><g class="cls-3"><path d="M15.31,24.46a2.29,2.29,0,0,1,1.25-.77,2.18,2.18,0,0,0-2.78.53l-6.54,7.5H9Z"/></g><path class="cls-2" d="M11.52,31.12l6.53-7.5a2.2,2.2,0,0,1,2.89-.47l12.58,8Z"/><g class="cls-3"><path d="M19.58,23.86a2.28,2.28,0,0,1,1.26-.77,2.19,2.19,0,0,0-2.79.53l-6.53,7.5h1.73Z"/></g><path class="cls-2" d="M1.69,28.5,7.18,23a3.79,3.79,0,0,1,4.49-.63L31.28,33.24,3.62,33.19A2.74,2.74,0,0,1,1.69,28.5Z"/><path class="cls-2" d="M14.86,33.18l8.35-9.6A2.8,2.8,0,0,1,26.9,23l8,5.11a2.78,2.78,0,0,1-1.5,5.12Z"/><g class="cls-3"><path d="M25.17,23.89a3,3,0,0,1,1.61-1,2.82,2.82,0,0,0-3.57.67l-8.35,9.6h2.22Z"/></g><g class="cls-3"><path d="M11.52,22.32l0,0-.19-.08-.09,0L11,22.12l-.1,0L10.73,22l-.11,0-.18,0-.12,0-.16,0H9.58L9.4,22H9.29l-.2,0L9,22a.86.86,0,0,0-.23.06H8.72l-.25.09h0A3.63,3.63,0,0,0,7.18,23L1.69,28.5a2.73,2.73,0,0,0-.51,3.2l8.38-8.35A3.81,3.81,0,0,1,11.52,22.32Z"/></g><circle class="cls-4" cx="27.19" cy="9.77" r="4.67"/><rect class="cls-4" x="26.88" y="2.5" width="0.62" height="1.57" rx="0.3"/><rect class="cls-4" x="26.88" y="15.47" width="0.62" height="1.57" rx="0.3"/><rect class="cls-4" x="33.36" y="8.98" width="0.62" height="1.57" rx="0.3" transform="translate(43.44 -23.9) rotate(90)"/><rect class="cls-4" x="20.4" y="8.98" width="0.62" height="1.57" rx="0.3" transform="translate(30.47 -10.94) rotate(90)"/><rect class="cls-4" x="31.46" y="4.4" width="0.62" height="1.57" rx="0.3" transform="translate(12.97 -20.95) rotate(45)"/><rect class="cls-4" x="22.29" y="13.57" width="0.62" height="1.57" rx="0.3" transform="translate(16.77 -11.78) rotate(45)"/><rect class="cls-4" x="31.46" y="13.57" width="0.62" height="1.57" rx="0.3" transform="translate(64.39 2.03) rotate(135)"/><rect class="cls-4" x="22.29" y="4.4" width="0.62" height="1.57" rx="0.3" transform="translate(42.25 -7.13) rotate(135)"/><path class="cls-5" d="M27.88,13.71A4.68,4.68,0,0,1,23.21,9a4.62,4.62,0,0,1,1-2.8,4.65,4.65,0,1,0,6.74,6.33A4.65,4.65,0,0,1,27.88,13.71Z"/></svg>