<svg xmlns="http://www.w3.org/2000/svg" xmlns:xlink="http://www.w3.org/1999/xlink" width="422.122" height="413.28" viewBox="0 0 422.122 413.28">
    <defs>
        <linearGradient id="linear-gradient" x1="-.13" x2=".764" y1="1.295" y2=".19" gradientUnits="objectBoundingBox">
            <stop offset="0" stop-color="#dae3fe"/>
            <stop offset="1" stop-color="#dbdbdb"/>
        </linearGradient>
        <linearGradient id="linear-gradient-2" x1="-.671" x2="3.854" y1="-.084" y2="2.172" gradientUnits="objectBoundingBox">
            <stop offset="0" stop-color="#01806b"/>
            <stop offset="1" stop-color="#002b23"/>
        </linearGradient>
        <linearGradient id="linear-gradient-3" x1="3.187" x2="-3.193" y1="2.358" y2="-2.054" gradientUnits="objectBoundingBox">
            <stop offset="0" stop-color="#01806b"/>
            <stop offset="1" stop-color="#004035"/>
        </linearGradient>
        <linearGradient id="linear-gradient-4" x1="4.932" x2="3.748" y1="-18.859" y2="-18.859" gradientUnits="objectBoundingBox">
            <stop offset="0" stop-color="#febbba"/>
            <stop offset="1" stop-color="#ff928e"/>
        </linearGradient>
        <linearGradient id="linear-gradient-5" x1="55.392" x2="54.885" y1="-138.399" y2="-138.399" xlink:href="#linear-gradient-4"/>
        <linearGradient id="linear-gradient-6" x1="-.023" x2="-1.09" y1="8.109" y2="8.306" xlink:href="#linear-gradient-4"/>
        <linearGradient id="linear-gradient-7" x1=".646" x2="-.004" y1=".405" y2="1.82" gradientUnits="objectBoundingBox">
            <stop offset="0" stop-color="#171717"/>
            <stop offset="1" stop-color="#444"/>
        </linearGradient>
        <linearGradient id="linear-gradient-8" x1=".873" x2=".14" y1=".445" y2=".561" gradientUnits="objectBoundingBox">
            <stop offset="0" stop-color="#01000a"/>
            <stop offset="1" stop-color="#444"/>
        </linearGradient>
        <linearGradient id="linear-gradient-9" x1="6.455" x2="9.305" y1=".465" y2="4.572" xlink:href="#linear-gradient-4"/>
        <linearGradient id="linear-gradient-10" x1="14.484" x2="15.611" y1="26.389" y2="27.672" xlink:href="#linear-gradient-4"/>
        <linearGradient id="linear-gradient-11" x1="11.126" x2="10.168" y1="17.757" y2="17.757" gradientUnits="objectBoundingBox">
            <stop offset="0" stop-color="#101010"/>
            <stop offset="1" stop-color="#444"/>
        </linearGradient>
        <linearGradient id="linear-gradient-12" x1="45.868" x2="43.316" y1="87.171" y2="84.575" xlink:href="#linear-gradient-4"/>
        <linearGradient id="linear-gradient-13" x1="1.109" x2="-.001" y1=".439" y2=".563" xlink:href="#linear-gradient-4"/>
        <style>
            .cls-2{fill:#cce6e1}.cls-3,.cls-5{fill:#fff}.cls-3{opacity:.43}.cls-8{fill:#eb1b59}.cls-9{fill:#767676}.cls-22{opacity:.3}.cls-23{fill:#01806b}
        </style>
    </defs>
    <g id="Layer_2">
        <g id="Illustration">
            <path id="Path_20947" fill="url(#linear-gradient)" d="M42.34 315.38a132.086 132.086 0 0 0 20.2 17.011c65.907 47.289 143.9 33.5 160.468 30.143 24.478-4.973 71.792-14.585 105.992-54.808 51.748-60.855 43.691-156.726 3.552-220.012C325.213 76.137 286.42 11.885 207.6 1.581c-47.7-6.235-103.313 6.341-143.583 40.08C-20.514 112.476-14.5 255.544 42.34 315.38z" transform="translate(10.39 25.625)"/>
            <path id="Path_20948" d="M2138.351 296.261a2.009 2.009 0 0 1 3.877.417c2.7 20.019 11.439 72.294 31.956 102.26 33.406 48.79 49.826 122.717 19.444 155.555-.001.007-133.68-44.478-55.277-258.232z" class="cls-2" transform="translate(-2111.012 -230.627)"/>
            <path id="Path_20949" d="M2278.781 516.672c-.039.637-.021 1.165-.026 1.734l.02 1.679.077 3.351c.067 2.228.168 4.465.27 6.7q.322 6.694.807 13.378c.646 8.912 1.533 17.805 2.554 26.683s2.266 17.733 3.71 26.555 3.029 17.623 4.894 26.37a429.287 429.287 0 0 0 14.207 51.726c3.015 8.424 6.254 16.775 9.971 24.919a232.3 232.3 0 0 0 12.575 23.7.353.353 0 0 0 .608-.356 259.632 259.632 0 0 1-11.849-23.927c-3.563-8.158-6.65-16.513-9.515-24.943s-5.38-16.973-7.706-25.567-4.288-17.288-6.206-25.985c-3.759-17.418-6.587-35.029-8.929-52.7q-1.73-13.258-2.943-26.581-.624-6.659-1.11-13.329l-.427-6.672-.179-3.338-.071-1.667c-.014-.547-.039-1.134-.031-1.613v-.089a.35.35 0 0 0-.7-.028z" class="cls-3" transform="translate(-2251.494 -423.017)"/>
            <path id="Path_20950" fill="#a6d8ce" d="M1945.4 15.91a1.924 1.924 0 0 1 3.443 1.442c-2.983 19.1-9.232 69.418 1.407 102.5 17.324 53.857 12.216 126.131-24.6 147.957-.008-.009-110.464-77.266 19.75-251.899z" transform="translate(-1830.797 12.512)"/>
            <path id="Path_20951" d="M2064.631 215.481c-.211.574-.338 1.063-.5 1.583l-.44 1.544-.844 3.094c-.55 2.067-1.065 4.141-1.582 6.215q-1.525 6.228-2.911 12.488c-1.835 8.35-3.453 16.748-4.941 25.163s-2.761 16.879-3.844 25.364-2.032 16.989-2.707 25.52a411.061 411.061 0 0 0-1.081 51.312c.469 8.549 1.162 17.09 2.349 25.573a222.472 222.472 0 0 0 5.074 25.163.343.343 0 0 0 .667-.164 248.492 248.492 0 0 1-4.325-25.176c-1.041-8.453-1.59-16.96-1.916-25.467s-.3-17.037-.092-25.548.787-17.022 1.4-25.521c1.3-17 3.514-33.919 6.183-50.762q2.028-12.63 4.549-25.18 1.243-6.275 2.615-12.525l1.428-6.236.745-3.11.393-1.549c.131-.5.274-1.048.41-1.486l.022-.073a.34.34 0 0 0-.644-.219z" class="cls-3" transform="translate(-1957.728 -161.38)"/>
            <circle id="Ellipse_368" cx="146.117" cy="146.117" r="146.117" class="cls-5" transform="rotate(-135 193.334 162.012)"/>
            <circle id="Ellipse_369" cx="124.704" cy="124.704" r="124.704" fill="url(#linear-gradient-2)" transform="translate(90.779 81.937)"/>
            <path id="Path_20952" d="M353.84 643.631c72.206 0 130.95-58.744 130.95-130.95S426.046 381.73 353.84 381.73s-130.95 58.749-130.95 130.951 58.747 130.95 130.95 130.95zm0-255.655a124.7 124.7 0 1 1-124.7 124.705 124.845 124.845 0 0 1 124.7-124.705z" class="cls-5" transform="translate(-138.357 -306.041)"/>
            <circle id="Ellipse_370" cx="76.025" cy="76.025" r="76.025" fill="url(#linear-gradient-3)" transform="rotate(-135 172.805 112.45)"/>
            <path id="Path_20953" d="M676.591 917.713a82.271 82.271 0 1 0-82.271-82.271 82.364 82.364 0 0 0 82.271 82.271zm0-152.051a69.78 69.78 0 1 1-69.779 69.78 69.859 69.859 0 0 1 69.779-69.781z" class="cls-5" transform="translate(-461.108 -628.801)"/>
            <circle id="Ellipse_371" cx="29.455" cy="29.455" r="29.455" class="cls-8" transform="rotate(-135 159.165 79.52)"/>
            <path id="Path_20954" d="M985.36 1179.911a35.7 35.7 0 1 0-35.7-35.7 35.741 35.741 0 0 0 35.7 35.7zm0-58.909a23.208 23.208 0 1 1-23.209 23.208A23.235 23.235 0 0 1 985.36 1121z" class="cls-5" transform="translate(-769.877 -937.571)"/>
            <path id="Path_20955" d="M2474.64 1654.7l-6.24 12.592 26.459-6.092a29.678 29.678 0 0 0 19.934-15.745z" class="cls-9" transform="translate(-2462.651 -1404.149)"/>
            <path id="Path_20956" d="M2486.119 1584.752l-11.119-8.6 26.459-6.092a29.678 29.678 0 0 1 24.818 5.443z" class="cls-9" transform="translate(-2475 -1337.976)"/>
            <path id="Rectangle_2666" fill="#242424" d="M0 0H4.654V176.22H0z" transform="scale(-1) rotate(77.06 151.6 -132.597)"/>
            <path id="Path_20957" fill="#444" d="M1207.851 1334.611c-2.6.6.221 12.865 2.823 12.266l39.508-14.218a1.311 1.311 0 0 0-.584-2.537z" transform="translate(-1033.569 -1130.13)"/>
            <path id="Path_20958" d="M1731.7 2714.51a14.606 14.606 0 0 0-2.215 7.309 1.848 1.848 0 0 0 1.794 1.872l16.234.566a.777.777 0 0 0 .5-1.4c-3-2.264-8.893-6.5-13.205-8.241z" class="cls-8" transform="translate(-1599.34 -2333.093)"/>
            <path id="Path_20959" fill="url(#linear-gradient-4)" d="M1828.09 2662.583l.416 6.241a1.263 1.263 0 0 0 1.346 1.187 4.557 4.557 0 0 0 1.5-.393 1.448 1.448 0 0 0 .843-1.377l-.282-7.53z" transform="translate(-1696.131 -2286.344)"/>
            <path id="Path_20960" d="M2551.832 2500.285a14.6 14.6 0 0 0-7.6-.786 1.848 1.848 0 0 0-1.5 2.116l2.524 16.047a.777.777 0 0 0 1.467.221c1.654-3.372 4.7-9.967 5.585-14.529z" class="cls-8" transform="translate(-2509.907 -2146.095)"/>
            <path id="Path_20961" fill="url(#linear-gradient-5)" d="M2495.577 2496.23l-6.049 1.593a1.263 1.263 0 0 0-.917 1.546 4.574 4.574 0 0 0 .675 1.393 1.449 1.449 0 0 0 1.512.566l7.339-1.7z" transform="translate(-2448.639 -2143.42)"/>
            <path id="Path_20962" fill="url(#linear-gradient-6)" d="M1819.049 1489.461a5.272 5.272 0 0 0 .456-2c-.088-.743-.107-3.065 1.284-4.046a.833.833 0 0 1 .769.883c.887-.953.933-1.775 1.849-1.191s4.365 2.676 2.644 4.056-4.43 4.006-4.43 4.006z" transform="translate(-1689.281 -1262.905)"/>
            <path id="Path_20963" fill="url(#linear-gradient-7)" d="M2159.454 2180.891s-3.072 24.52-11.87 25.456-42.488 5.8-42.488 5.8l-.937-5.054s19.467-11.8 31.071-11.6c5.8-8.61 4.388-32.4 4.388-32.4z" transform="translate(-2059.576 -1853.94)"/>
            <path id="Path_20964" d="M1856.47 1547.7c1.037 27.336 15.376 29.75 15.376 29.75v34.965h20.221s9.8-23.876 9.549-31.857c14.583-6.16 21.964-41.425 23.506-45.94a26.194 26.194 0 0 1-2.573-1.7c-19.876 31.635-24.725 36.5-24.725 36.5h-11.23c-21.58-1.938-26.889-22.451-26.889-22.451z" class="cls-8" transform="translate(-1792.782 -1306.35)"/>
            <path id="Path_20965" fill="url(#linear-gradient-8)" d="M1813.412 2134.225s-1.607 17.132 32.139 30.484c8.236 15.343 19.037 43.956 19.037 43.956h7.113s-4.867-43.211-13.477-51.821-18-18.3-25.223-22.542c-16.701-1.749-19.589-.077-19.589-.077z" transform="translate(-1733.716 -1828.232)"/>
            <path id="Path_20966" fill="url(#linear-gradient-9)" d="M2086.222 1714.12l-3.722 13.106s6.36 3.419 11.064 2.49l1.292-11.549z" transform="translate(-1992.139 -1463.811)"/>
            <path id="Path_20967" fill="url(#linear-gradient-10)" d="M2058.5 1637.662c.131.153 5.2 12.741 5.2 12.741l-7.249 2.738-6.572-11.219s6.335-6.827 8.621-4.26z" transform="translate(-1956.707 -1396.872)"/>
            <path id="Path_20968" fill="url(#linear-gradient-11)" d="M2044.26 1609.881l3 6.177a1.017 1.017 0 0 0 .144.218c.358.4 1.691 1.7 2.933.262 1.13-1.311 2.178-2.49 3.236-2.8a.957.957 0 0 1 1.16.561 42.559 42.559 0 0 1 1.966 6.128.956.956 0 0 1-.655 1.111 30.814 30.814 0 0 1-7.061 1.4.963.963 0 0 1-.866-.463c-.886-1.474-3.6-5.942-4.544-7.077-.89-1.059-2.752-.818-3.525-.655a.942.942 0 0 1-.727-.151 2.486 2.486 0 0 1-.6-3.946.958.958 0 0 0-.177-1.371 2.492 2.492 0 0 1-.732-3.642 3.514 3.514 0 0 1 4.055-1.467.96.96 0 0 0 1.1-.553.758.758 0 0 1 .737-.451.945.945 0 0 0 .893-1.076 2.863 2.863 0 0 1 1.862-3.217c3.146-1.381 5.535 1.539 6 3.866s-3.03 3.633-5.163 3.713c-1.621.06-2.636 1.789-3.029 2.621a.952.952 0 0 0-.007.812z" transform="translate(-1948.075 -1363.353)"/>
            <path id="Path_20969" fill="url(#linear-gradient-12)" d="M2134.063 1717.708s-.987-4.021-2.706-4.029-3.215 1.573-1.269 3.669c2.425 2.616 3.975.36 3.975.36z" transform="translate(-2037.462 -1463.429)"/>
            <path id="Path_20970" fill="url(#linear-gradient-13)" d="M2356.512 1586.906s4.368-1.934 3.8 1.311.612 5.615-1.878 5.865-2.766-4.933-1.922-7.176z" transform="translate(-2293.501 -1352.773)"/>
            <g id="Group_8488" class="cls-22" transform="translate(238.071 25.682)">
                <path id="Path_20971" d="M472.1 65.5a1.393 1.393 0 0 0 1.442-1.18c.244-1.553.423-3.145.533-4.718a1.393 1.393 0 0 0-1.292-1.488h-.026a1.394 1.394 0 0 0-1.46 1.294c-.1 1.5-.275 3.006-.506 4.482a1.4 1.4 0 0 0 1.309 1.61zm.524-12.119a1.394 1.394 0 0 0 1.463-1.484c-.106-1.573-.28-3.164-.518-4.718a1.392 1.392 0 0 0-2.752.421c.225 1.477.393 2.985.49 4.483a1.393 1.393 0 0 0 1.32 1.3zm-2.153-11.934a1.394 1.394 0 0 0 1.4-1.792c-.453-1.51-.978-3.014-1.558-4.485a1.392 1.392 0 1 0-2.588 1.026c.552 1.392 1.048 2.824 1.478 4.259a1.394 1.394 0 0 0 1.266.991zM465.7 30.29a1.391 1.391 0 0 0 1.279-2.079c-.78-1.371-1.628-2.725-2.52-4.025a1.392 1.392 0 0 0-2.295 1.573c.848 1.235 1.654 2.52 2.394 3.823a1.387 1.387 0 0 0 1.144.708zm-7.137-9.811a1.392 1.392 0 0 0 1.1-2.33c-1.062-1.161-2.187-2.293-3.347-3.364a1.393 1.393 0 1 0-1.89 2.046c1.1 1.018 2.173 2.1 3.182 3.2a1.383 1.383 0 0 0 .959.451zm-9.129-7.987a1.393 1.393 0 0 0 .868-2.535c-1.295-.9-2.643-1.754-4.01-2.54a1.393 1.393 0 1 0-1.385 2.417c1.3.748 2.58 1.56 3.81 2.414a1.383 1.383 0 0 0 .721.244zm-50.789-5.907a1.371 1.371 0 0 0 .582-.1c1.4-.549 2.826-1.045 4.267-1.472a1.392 1.392 0 1 0-.8-2.668c-1.514.45-3.025.971-4.49 1.549a1.393 1.393 0 0 0 .436 2.687zm40.13.145a1.393 1.393 0 0 0 .591-2.683c-1.463-.588-2.967-1.122-4.474-1.583a1.393 1.393 0 1 0-.815 2.663c1.431.438 2.861.944 4.249 1.5a1.4 1.4 0 0 0 .449.103zm-28.411-3.295a1.349 1.349 0 0 0 .28-.013c1.48-.223 2.989-.385 4.486-.484a1.392 1.392 0 0 0-.18-2.778c-1.573.1-3.162.274-4.718.509a1.392 1.392 0 0 0 .131 2.767zm16.72.06a1.393 1.393 0 0 0 .287-2.767c-1.555-.245-3.145-.428-4.718-.542h-.025a1.393 1.393 0 0 0-.17 2.78c1.5.107 3 .28 4.48.515a1.441 1.441 0 0 0 .146.019z" class="cls-23" transform="translate(-388.59 -.157)"/>
                <path id="Path_20972" d="M1015.169 56.744a1.389 1.389 0 0 0 .8-.208c.61-.38 1.237-.752 1.866-1.11a1.392 1.392 0 1 0-1.37-2.426c-.655.374-1.321.767-1.966 1.165a1.393 1.393 0 0 0 .666 2.574z" class="cls-23" transform="translate(-1013.843 -45.92)"/>
            </g>
            <g id="Group_8489" class="cls-22" transform="translate(212.466 66.277)">
                <path id="Path_20973" d="M1212.209 314.86a1.393 1.393 0 0 0 1.432-1.1c.148-.7.316-1.413.5-2.113a1.393 1.393 0 1 0-2.7-.692c-.188.737-.364 1.485-.524 2.228a1.393 1.393 0 0 0 1.072 1.653 1.435 1.435 0 0 0 .22.024z" class="cls-23" transform="translate(-1209.698 -309.907)"/>
                <path id="Path_20974" d="M692.581 443.285q.959.05 1.928.066a1.393 1.393 0 1 0 .048-2.785c-1.49-.026-2.976-.111-4.432-.262a1.392 1.392 0 1 0-.278 2.771c.9.094 1.82.163 2.734.21zm9.271-.311a1.44 1.44 0 0 0 .237-.008c1.543-.184 3.094-.434 4.613-.746a1.392 1.392 0 0 0-.56-2.727c-1.442.295-2.917.533-4.383.708a1.392 1.392 0 0 0 .092 2.773zm-19.226-1.131a1.393 1.393 0 0 0 .393-2.744c-1.43-.345-2.865-.756-4.265-1.223a1.393 1.393 0 1 0-.886 2.642c1.474.491 2.986.924 4.491 1.288a1.361 1.361 0 0 0 .265.037zm30.855-1.573a1.4 1.4 0 0 0 .535-.077c1.464-.518 2.923-1.1 4.337-1.743a1.392 1.392 0 1 0-1.147-2.537c-1.343.607-2.729 1.162-4.118 1.654a1.392 1.392 0 0 0 .393 2.7zm-42.069-2.49a1.393 1.393 0 0 0 .691-2.645c-1.318-.655-2.628-1.368-3.891-2.131a1.393 1.393 0 1 0-1.442 2.384c1.33.8 2.708 1.558 4.1 2.244a1.394 1.394 0 0 0 .544.143zm-10.056-6.436a1.392 1.392 0 0 0 .948-2.473c-1.148-.927-2.27-1.912-3.334-2.929a1.392 1.392 0 1 0-1.924 2.013c1.121 1.071 2.3 2.107 3.508 3.082a1.387 1.387 0 0 0 .8.307zm-8.41-8.468a1.393 1.393 0 0 0 1.16-2.258c-.917-1.155-1.8-2.359-2.621-3.586a1.393 1.393 0 1 0-2.317 1.547c.861 1.288 1.788 2.558 2.752 3.773a1.388 1.388 0 0 0 1.029.524zm-6.362-10.1a1.394 1.394 0 0 0 1.322-2c-.645-1.328-1.24-2.7-1.768-4.072a1.392 1.392 0 1 0-2.6 1c.557 1.442 1.179 2.883 1.861 4.287a1.389 1.389 0 0 0 1.186.784zm-3.992-11.255a1.394 1.394 0 0 0 1.427-1.7c-.334-1.434-.612-2.9-.826-4.359a1.393 1.393 0 0 0-2.752.4c.225 1.537.518 3.081.87 4.587a1.4 1.4 0 0 0 1.283 1.073zm-1.419-11.85h.086a1.393 1.393 0 0 0 1.379-1.406c-.012-1.086.012-2.185.067-3.266.02-.393.045-.786.072-1.172a1.391 1.391 0 0 0-1.287-1.49 1.376 1.376 0 0 0-1.49 1.287c-.03.41-.055.82-.076 1.233-.059 1.138-.083 2.293-.071 3.435a1.392 1.392 0 0 0 1.319 1.379z" class="cls-23" transform="translate(-639.85 -372.84)"/>
                <path id="Path_20975" d="M576.629 757.765a1.391 1.391 0 0 0 .811-.211c.638-.4 1.28-.824 1.907-1.257a1.392 1.392 0 1 0-1.573-2.297c-.6.41-1.2.811-1.811 1.193a1.392 1.392 0 0 0 .672 2.569z" class="cls-23" transform="translate(-492.223 -695.558)"/>
            </g>
            <path id="Path_20976" d="M570.826 174.087a.655.655 0 0 1-.738.163l-7.288-3.11a34.492 34.492 0 0 1-10.091 4.793l-2.2 7.6a.655.655 0 0 1-.592.469l-9.49.474a.655.655 0 0 1-.646-.4l-2.951-7.346a34.506 34.506 0 0 1-10.528-3.759l-6.938 3.82a.655.655 0 0 1-.751-.088l-7.046-6.373a.655.655 0 0 1-.161-.738l3.107-7.285a34.509 34.509 0 0 1-4.792-10.1l-7.6-2.2a.655.655 0 0 1-.468-.592l-.476-9.489a.655.655 0 0 1 .408-.637l7.339-2.951a34.467 34.467 0 0 1 3.76-10.528l-3.822-6.938a.655.655 0 0 1 .088-.75l6.373-7.046a.655.655 0 0 1 .738-.163l7.286 3.109a34.513 34.513 0 0 1 10.1-4.793l2.2-7.6a.655.655 0 0 1 .592-.469l9.489-.474a.655.655 0 0 1 .637.406l2.951 7.346a34.5 34.5 0 0 1 10.528 3.759l6.938-3.82a.655.655 0 0 1 .75.088l7.047 6.373a.655.655 0 0 1 .161.738l-3.109 7.285a34.5 34.5 0 0 1 4.793 10.1l7.6 2.2a.647.647 0 0 1 .469.592l.476 9.489a.655.655 0 0 1-.408.637l-7.339 2.951a34.535 34.535 0 0 1-3.763 10.52l3.82 6.938a.655.655 0 0 1-.086.751z" class="cls-2" transform="translate(-275.01 -61.828)"/>
            <path id="Path_20977" d="M757.055 366.581a9.549 9.549 0 1 0-1.392-.173 9.831 9.831 0 0 0 1.392.173zm.837-16.853a7.323 7.323 0 1 1-7.537 5.879 7.324 7.324 0 0 1 7.537-5.878z" class="cls-23" transform="translate(-489.467 -276.292)"/>
            <path id="Path_20978" d="M664.969 286.935a23.636 23.636 0 0 0 2.413 0c.254-.013.51-.03.764-.051a23.748 23.748 0 0 0 3.712-.605l.05-.012.14-.037c.092-.022.182-.047.274-.071a.557.557 0 1 0-.29-1.076 22.386 22.386 0 0 1-28.165-20.483 22.852 22.852 0 0 1 0-2.3 22.37 22.37 0 1 1 42.089 11.7.539.539 0 0 0-.066.233.557.557 0 0 0 1.048.29 23.424 23.424 0 0 0 2.719-9.829 23.5 23.5 0 0 0-24.627-24.665 23.491 23.491 0 0 0-22.28 22.212 23.973 23.973 0 0 0 0 2.415 23.487 23.487 0 0 0 22.214 22.28z" class="cls-23" transform="translate(-398.277 -182.88)"/>
            <g id="Group_8490" class="cls-22" transform="translate(327.557 80.115)">
                <path id="Path_20979" d="M53.645 771.82a.86.86 0 0 0 .856-.575c.241-.688.464-1.394.663-2.1a.86.86 0 0 0-1.654-.471c-.19.671-.4 1.343-.633 2a.857.857 0 0 0 .768 1.141z" class="cls-23" transform="translate(-14.033 -721.848)"/>
                <path id="Path_20980" d="M83.674 459.054a.86.86 0 0 0 .893-.729 37.364 37.364 0 0 0 .385-3.764c.013-.262.024-.524.031-.8a.89.89 0 0 0-.834-.886.86.86 0 0 0-.886.834c-.008.254-.017.509-.03.76a35.872 35.872 0 0 1-.367 3.591.86.86 0 0 0 .72.98c.03.009.059.013.088.014zm.262-8.926a.965.965 0 0 0 .123 0 .862.862 0 0 0 .778-.936 37.225 37.225 0 0 0-.7-4.524.86.86 0 1 0-1.68.367 35.65 35.65 0 0 1 .667 4.314.858.858 0 0 0 .815.779zm-1.907-8.728a.879.879 0 0 0 .33-.048.861.861 0 0 0 .524-1.1 37.122 37.122 0 0 0-1.792-4.216.86.86 0 0 0-1.539.769 35.052 35.052 0 0 1 1.7 4.02.862.862 0 0 0 .777.575zm-3.993-7.988a.86.86 0 0 0 .764-1.336 37.327 37.327 0 0 0-2.767-3.649.861.861 0 0 0-1.3 1.123 35.576 35.576 0 0 1 2.639 3.478.855.855 0 0 0 .671.383zm-5.823-6.77a.86.86 0 0 0 .623-1.5 37.435 37.435 0 0 0-3.569-2.865.86.86 0 1 0-.988 1.4 36.033 36.033 0 0 1 3.407 2.734.857.857 0 0 0 .531.221zm-7.288-5.152a.86.86 0 0 0 .46-1.616 36.984 36.984 0 0 0-4.16-1.908.86.86 0 1 0-.619 1.6 35.371 35.371 0 0 1 3.965 1.819.83.83 0 0 0 .358.1zm-8.325-3.206a.861.861 0 0 0 .25-1.695 37.7 37.7 0 0 0-4.5-.83.861.861 0 0 0-.208 1.7 35.286 35.286 0 0 1 4.295.786.9.9 0 0 0 .163.039zm-13.33-.786a.849.849 0 0 0 .152 0 35.232 35.232 0 0 1 3.788-.27c.193 0 .381-.007.57-.007a.861.861 0 0 0 0-1.721c-.2 0-.4 0-.6.008a37.337 37.337 0 0 0-3.967.283.86.86 0 0 0 .063 1.712z" class="cls-23" transform="translate(-42.46 -415.5)"/>
            </g>
            <g id="Group_8491" class="cls-22" transform="translate(298.877 131.017)">
                <path id="Path_20981" d="M237.793 827.195a.861.861 0 0 0 .1-1.718 35.412 35.412 0 0 1-4.261-.532.86.86 0 0 0-.317 1.691 37.5 37.5 0 0 0 4.468.558zm4.4.016h.093a37.634 37.634 0 0 0 4.473-.524.86.86 0 1 0-.3-1.693 36.135 36.135 0 0 1-4.269.5.86.86 0 0 0 0 1.717zm-13.031-1.633a.86.86 0 0 0 .3-1.679 35.416 35.416 0 0 1-4.006-1.548.86.86 0 0 0-.716 1.565 37.415 37.415 0 0 0 4.194 1.621.852.852 0 0 0 .221.041zm21.677.084a.863.863 0 0 0 .3-.037 36.867 36.867 0 0 0 4.219-1.584.861.861 0 1 0-.7-1.573 35.4 35.4 0 0 1-4.02 1.512.861.861 0 0 0 .207 1.682zm-29.662-3.744a.86.86 0 0 0 .5-1.587 35.315 35.315 0 0 1-3.516-2.465.86.86 0 0 0-1.071 1.346 37.2 37.2 0 0 0 3.687 2.584.847.847 0 0 0 .4.126zm-6.874-5.464a.86.86 0 0 0 .655-1.463 35.942 35.942 0 0 1-2.827-3.234.86.86 0 0 0-1.362 1.049 37.507 37.507 0 0 0 2.963 3.393.861.861 0 0 0 .57.259zm-5.373-6.954a.843.843 0 0 0 .482-.119.861.861 0 0 0 .3-1.179 35.27 35.27 0 0 1-1.966-3.819.86.86 0 0 0-1.573.693 37.058 37.058 0 0 0 2.063 4.006.862.862 0 0 0 .7.422z" class="cls-23" transform="translate(-206.11 -803.891)"/>
                <path id="Path_20982" d="M163.153 923.357a.847.847 0 0 0 .489-.123c.63-.38 1.252-.786 1.847-1.193a.86.86 0 1 0-.975-1.417c-.569.393-1.161.775-1.763 1.137a.861.861 0 0 0 .4 1.6z" class="cls-23" transform="translate(-110.369 -905.194)"/>
            </g>
            <path id="Path_20983" d="M158.487 531.848a.435.435 0 0 1-.494.109l-4.874-2.08a23.134 23.134 0 0 1-6.759 3.211l-1.474 5.088a.434.434 0 0 1-.393.313l-6.35.318a.436.436 0 0 1-.426-.273l-1.978-4.922a23.135 23.135 0 0 1-7.039-2.512l-4.643 2.557a.436.436 0 0 1-.5-.059l-4.718-4.265a.435.435 0 0 1-.109-.494l2.08-4.875a23.1 23.1 0 0 1-3.21-6.764l-5.088-1.474a.434.434 0 0 1-.313-.393l-.318-6.35a.436.436 0 0 1 .273-.426l4.915-1.975a23.088 23.088 0 0 1 2.518-7.047l-2.557-4.643a.436.436 0 0 1 .059-.5l4.265-4.718a.433.433 0 0 1 .494-.109l4.874 2.08a23.066 23.066 0 0 1 6.757-3.2l1.474-5.088a.434.434 0 0 1 .393-.313l6.35-.318a.436.436 0 0 1 .426.273l1.975 4.915a23.053 23.053 0 0 1 7.044 2.516l4.65-2.557a.433.433 0 0 1 .5.059L161 492.2a.435.435 0 0 1 .109.494l-2.075 4.879a23.1 23.1 0 0 1 3.207 6.759l5.089 1.468a.433.433 0 0 1 .313.393l.318 6.35a.436.436 0 0 1-.273.426l-4.915 1.975a23.1 23.1 0 0 1-2.516 7.044l2.557 4.643a.436.436 0 0 1-.059.5z" class="cls-2" transform="translate(193.024 -393.8)"/>
            <path id="Path_20984" d="M282.175 659.805a6.522 6.522 0 1 0-.957-.119 6.451 6.451 0 0 0 .957.119zm.558-11.271a4.916 4.916 0 0 1 .7.086 4.785 4.785 0 0 1-1.882 9.38 4.785 4.785 0 0 1 1.18-9.471z" class="cls-23" transform="translate(50.451 -536.343)"/>
            <path id="Path_20985" d="M218.279 604.687a16.156 16.156 0 0 0 1.647 0 16.339 16.339 0 0 0 3.263-.5l.143-.038a.861.861 0 0 0 .637-.786.89.89 0 0 0-.029-.262.861.861 0 0 0-1.048-.607 14.575 14.575 0 0 1-3.052.474l-.169.006a14.345 14.345 0 0 1-6.938-1.464 14.507 14.507 0 0 1-3.233-2.18l-.025-.021-.073-.066a14.478 14.478 0 1 1 22.5-3.932.847.847 0 0 0-.1.362.86.86 0 0 0 1.617.443 16.176 16.176 0 0 0 1.877-6.778 16.4 16.4 0 0 0 0-1.645 16.2 16.2 0 0 0-32.362-.046 16.445 16.445 0 0 0 0 1.667 16.226 16.226 0 0 0 15.345 15.369z" class="cls-23" transform="translate(113.735 -471.641)"/>
        </g>
    </g>
</svg>
