<svg width="24" height="24" viewBox="0 0 24 24" fill="none" xmlns="http://www.w3.org/2000/svg">
<g clip-path="url(#clip0_838_10666)">
<path d="M23.9111 11.7161C23.7221 11.4411 19.18 5 11.9999 5C5.83883 5 0.348744 11.4041 0.11774 11.6771C-0.0392467 11.8631 -0.0392467 12.1361 0.11774 12.3231C0.348744 12.5961 5.83883 19.0002 11.9999 19.0002C18.1611 19.0002 23.6511 12.5961 23.8821 12.3231C24.0271 12.1511 24.0401 11.9021 23.9111 11.7161ZM11.9999 18.0002C7.06088 18.0002 2.36478 13.2902 1.17179 12.0001C2.36281 10.7091 7.05389 6.00005 11.9999 6.00005C17.779 6.00005 21.8581 10.7031 22.8541 11.9731C21.7041 13.2221 16.981 18.0002 11.9999 18.0002Z" fill="#999DA0"/>
<path d="M12 8C9.79403 8 8 9.79403 8 12C8 14.2061 9.79403 16.0001 12 16.0001C14.2061 16.0001 16.0001 14.2061 16.0001 12C16.0001 9.79403 14.2061 8 12 8ZM12 15.0001C10.346 15.0001 9 13.6541 9 12.0001C9 10.3461 10.346 9.00005 12 9.00005C13.6541 9.00005 15.0001 10.3461 15.0001 12.0001C15.0001 13.6541 13.6541 15.0001 12 15.0001Z" fill="#999DA0"/>
<path d="M23 5L1 20" stroke="#999DA0" stroke-linecap="round" stroke-linejoin="round"/>
</g>
<defs>
<clipPath id="clip0_838_10666">
<rect width="24" height="24" fill="white"/>
</clipPath>
</defs>
</svg>
