<svg width="80" height="114" viewBox="0 0 80 114" fill="none" xmlns="http://www.w3.org/2000/svg">
<g style="mix-blend-mode:multiply" opacity="0.2">
<path d="M79.6657 111.095C79.6657 112.359 61.833 113.383 39.8359 113.383C17.8388 113.383 0 112.359 0 111.095C0 109.832 17.8327 108.808 39.831 108.808C61.8293 108.808 79.6657 109.833 79.6657 111.095Z" fill="#1C1C1C"/>
</g>
<path d="M39.7927 0.000167847C19.9482 0.000167847 3.86133 16.087 3.86133 35.9376C3.86133 68.8737 39.7987 105.661 39.7987 105.661C39.7987 105.661 75.7228 71.0069 75.7228 35.9315C75.7228 16.087 59.636 0.000167847 39.7927 0.000167847ZM39.7927 53.0418C36.2388 53.0418 32.7647 51.988 29.8098 50.0136C26.8549 48.0391 24.5518 45.2328 23.1918 41.9495C21.8317 38.6661 21.4759 35.0532 22.1692 31.5676C22.8626 28.082 24.5739 24.8803 27.0869 22.3673C29.5998 19.8544 32.8016 18.143 36.2872 17.4497C39.7727 16.7564 43.3856 17.1122 46.669 18.4722C49.9524 19.8322 52.7587 22.1353 54.7331 25.0903C56.7075 28.0452 57.7614 31.5193 57.7614 35.0731C57.7614 37.4328 57.2966 39.7694 56.3936 41.9495C55.4906 44.1295 54.167 46.1104 52.4985 47.7789C50.8299 49.4475 48.8491 50.771 46.669 51.6741C44.4889 52.5771 42.1524 53.0418 39.7927 53.0418Z" fill="#F36D25"/>
<g style="mix-blend-mode:multiply">
<g style="mix-blend-mode:multiply">
<path d="M39.7933 0.000167847C39.5723 0.000167847 39.3526 0.000166883 39.1328 0.00866559C58.6726 0.360755 74.4037 16.308 74.4037 35.9315C74.4037 68.1538 44.0851 100.011 39.151 104.981C39.5662 105.423 39.7933 105.655 39.7933 105.655C39.7933 105.655 75.7234 71.0069 75.7234 35.9315C75.7234 16.087 59.6366 0.000167847 39.7933 0.000167847Z" fill="#E01212"/>
</g>
</g>
<g style="mix-blend-mode:screen" opacity="0.5">
<g style="mix-blend-mode:screen" opacity="0.5">
<path d="M5.19301 37.0714C5.19301 17.2281 21.2799 1.14129 41.1304 1.14129C49.4048 1.12803 57.428 3.98291 63.8341 9.21992C57.2438 3.27393 48.6796 -0.0118933 39.8034 3.2349e-05C19.9589 3.2349e-05 3.87207 16.0869 3.87207 35.9374C3.87207 68.8736 39.8095 105.661 39.8095 105.661L39.9418 105.531C33.6855 98.7842 5.19301 66.4017 5.19301 37.0714Z" fill="#E01212"/>
</g>
</g>
<path style="mix-blend-mode:screen" opacity="0.5" d="M72.35 20.7164C66.6207 8.47824 54.198 0.000167847 39.7927 0.000167847C19.9482 0.000167847 3.86133 16.087 3.86133 35.9376C3.86133 46.5597 7.60076 57.5802 12.6636 67.639C14.7817 67.8915 16.913 68.0184 19.0461 68.019C46.5334 68.0129 69.1909 47.3538 72.35 20.7164ZM39.7927 53.0418C36.2388 53.0418 32.7647 51.988 29.8098 50.0136C26.8549 48.0391 24.5518 45.2328 23.1917 41.9495C21.8317 38.6661 21.4759 35.0532 22.1692 31.5676C22.8626 28.082 24.5739 24.8803 27.0869 22.3673C29.5998 19.8544 32.8016 18.143 36.2871 17.4497C39.7727 16.7564 43.3856 17.1122 46.669 18.4722C49.9523 19.8322 52.7587 22.1353 54.7331 25.0903C56.7075 28.0452 57.7614 31.5193 57.7614 35.0731C57.7614 37.4328 57.2966 39.7694 56.3936 41.9495C55.4906 44.1295 54.167 46.1104 52.4985 47.7789C50.8299 49.4475 48.8491 50.771 46.669 51.6741C44.4889 52.5771 42.1524 53.0418 39.7927 53.0418Z" fill="url(#paint0_linear_2826_19749)"/>
<path style="mix-blend-mode:screen" opacity="0.5" d="M42.7464 5.21003C49.6983 5.7673 56.0566 8.02311 61.3525 11.4784C55.7808 5.61291 48.2362 2.01578 40.1713 1.37954C23.9484 0.0768125 9.53462 10.7767 5.66406 26.044C11.1773 12.7326 26.0585 3.87088 42.7464 5.21003Z" fill="url(#paint1_linear_2826_19749)"/>
<g style="mix-blend-mode:multiply" opacity="0.7">
<path d="M21.8271 35.0754C21.8279 31.4223 22.9421 27.8562 25.0212 24.8525C27.1004 21.8488 30.0457 19.5501 33.4645 18.2629C36.8833 16.9757 40.6133 16.7612 44.1571 17.6478C47.701 18.5345 50.8904 20.4803 53.3003 23.2258C51.8661 21.2667 50.0497 19.6187 47.9609 18.3811C45.872 17.1435 43.554 16.3421 41.1469 16.0252C38.7397 15.7083 36.2933 15.8826 33.9553 16.5374C31.6174 17.1923 29.4364 18.3141 27.544 19.8353C25.6517 21.3564 24.0872 23.2453 22.9451 25.3878C21.803 27.5303 21.107 29.8821 20.899 32.3011C20.6911 34.7201 20.9755 37.1562 21.7352 39.4622C22.4948 41.7683 23.7139 43.8964 25.3189 45.7182C23.0454 42.636 21.8215 38.9054 21.8271 35.0754Z" fill="#E01212"/>
</g>
<path style="mix-blend-mode:screen" opacity="0.7" d="M51.6013 21.5321C55.0968 24.5963 57.2688 28.8959 57.6611 33.5278C58.0533 38.1597 56.6353 42.7634 53.7048 46.3718C50.7744 49.9802 46.5596 52.3126 41.9457 52.8789C37.3319 53.4453 32.6781 52.2016 28.9619 49.4091C30.7792 51.0021 32.8991 52.2122 35.1948 52.9669C37.4906 53.7217 39.915 54.0056 42.323 53.8017C44.731 53.5977 47.0731 52.9102 49.2093 51.7801C51.3454 50.65 53.2316 49.1007 54.7551 47.2247C56.2786 45.3488 57.408 43.1848 58.0758 40.8623C58.7436 38.5398 58.936 36.1064 58.6416 33.7078C58.3471 31.3091 57.5719 28.9945 56.3622 26.9025C55.1525 24.8104 53.5332 22.9838 51.6013 21.5321Z" fill="url(#paint2_linear_2826_19749)"/>
<defs>
<linearGradient id="paint0_linear_2826_19749" x1="57.1082" y1="57.256" x2="10.6809" y2="10.8287" gradientUnits="userSpaceOnUse">
<stop stop-color="#F4C7C5"/>
<stop offset="0.8"/>
</linearGradient>
<linearGradient id="paint1_linear_2826_19749" x1="15384.6" y1="7934.42" x2="40104.2" y2="3364.22" gradientUnits="userSpaceOnUse">
<stop stop-color="#FA8C85"/>
<stop offset="0.8"/>
</linearGradient>
<linearGradient id="paint2_linear_2826_19749" x1="22826.2" y1="19334.8" x2="18604" y2="15441.7" gradientUnits="userSpaceOnUse">
<stop stop-color="#EF4136"/>
<stop offset="0.8"/>
</linearGradient>
</defs>
</svg>
